<svg xmlns="http://www.w3.org/2000/svg">
  <defs>
    <symbol viewBox="0 0 24 24" id="i-wifi"><path fill="none" stroke="currentColor" stroke-linecap="round" stroke-linejoin="round" stroke-width="1.5" d="M8.288 15.038a5.25 5.25 0 0 1 7.424 0M5.106 11.856c3.807-3.808 9.98-3.808 13.788 0M1.924 8.674c5.565-5.565 14.587-5.565 20.152 0M12.53 18.22l-.53.53l-.53-.53a.75.75 0 0 1 1.06 0"></path></symbol>
    <symbol viewBox="0 0 20 20" id="i-info"><g><path fill-rule="evenodd" clip-rule="evenodd" d="M9.99999 3.33329C6.31809 3.33329 3.33332 6.31806 3.33332 9.99996C3.33332 13.6819 6.31809 16.6666 9.99999 16.6666C13.6819 16.6666 16.6667 13.6819 16.6667 9.99996C16.6667 6.31806 13.6819 3.33329 9.99999 3.33329ZM1.66666 9.99996C1.66666 5.39759 5.39762 1.66663 9.99999 1.66663C14.6024 1.66663 18.3333 5.39759 18.3333 9.99996C18.3333 14.6023 14.6024 18.3333 9.99999 18.3333C5.39762 18.3333 1.66666 14.6023 1.66666 9.99996ZM9.99999 5.83329C10.6903 5.83329 11.25 6.39294 11.25 7.08329C11.25 7.77365 10.6903 8.33329 9.99999 8.33329C9.30963 8.33329 8.74999 7.77365 8.74999 7.08329C8.74999 6.39294 9.30963 5.83329 9.99999 5.83329ZM9.16667 10V14.1667L10.8333 14.1667V10H9.16667Z" fill="currentColor"></path></g></symbol>
    <symbol viewBox="0 0 32 32" id="i-like"><g><rect width="32" height="32"></rect><path fill-rule="evenodd" clip-rule="evenodd" d="M22.028 6.45909C19.7969 6.50597 17.3333 8.26651 17.3333 12.2521H14.6667C14.6667 8.26651 12.2031 6.50598 9.97199 6.45911C8.81733 6.43484 7.67805 6.85823 6.82527 7.72468C5.98136 8.5821 5.33333 9.96232 5.33333 12C5.33333 15.2834 7.77683 17.6437 10.8322 20.0843C11.115 20.3102 11.4042 20.5379 11.6956 20.7672C12.887 21.705 14.1133 22.6703 15.0776 23.6548C15.4019 23.9859 15.7153 24.3372 16 24.7101C16.2847 24.3372 16.5981 23.9859 16.9224 23.6548C17.8867 22.6703 19.113 21.705 20.3044 20.7672C20.5958 20.5379 20.885 20.3102 21.1678 20.0843C24.2232 17.6437 26.6667 15.2834 26.6667 12C26.6667 9.96231 26.0186 8.58208 25.1747 7.72466C24.322 6.85821 23.1827 6.43483 22.028 6.45909ZM17.3333 28.2522H14.6667C14.6667 27.4484 14.2188 26.5891 13.1724 25.5207C12.3408 24.6716 11.2934 23.8462 10.1182 22.9202C9.80971 22.6771 9.49238 22.4271 9.16784 22.1678C6.22317 19.8156 2.66666 16.7166 2.66666 12C2.66666 9.37098 3.51863 7.28272 4.92473 5.8541C6.32195 4.43449 8.18266 3.75425 10.028 3.79303C12.3746 3.84233 14.6311 5.0364 16 7.22136C17.3689 5.0364 19.6254 3.84232 21.972 3.79301C23.8173 3.75423 25.6781 4.43447 27.0753 5.85408C28.4814 7.28271 29.3333 9.37097 29.3333 12C29.3333 16.7166 25.7768 19.8156 22.8322 22.1678C22.5076 22.4271 22.1903 22.6771 21.8818 22.9202C20.7066 23.8462 19.6592 24.6716 18.8276 25.5207C17.7812 26.5891 17.3333 27.4484 17.3333 28.2522Z" fill="currentColor"></path></g></symbol>
    <symbol viewBox="0 0 32 32" id="i-liked"><g><rect width="32" height="32"></rect><path fill-rule="evenodd" clip-rule="evenodd" d="M16 28.2524H14.6667C14.6667 27.4486 14.2188 26.5893 13.1724 25.5209C12.3408 24.6718 11.2934 23.8465 10.1183 22.9205L10.1182 22.9205L10.1179 22.9202C9.80945 22.6771 9.49225 22.4272 9.16784 22.1681C6.22317 19.8159 2.66667 16.7168 2.66667 12.0002C2.66667 9.37122 3.51863 7.28297 4.92473 5.85435C6.32195 4.43474 8.18267 3.7545 10.028 3.79327C12.3746 3.84258 14.6311 5.03664 16 7.2216C17.3689 5.03664 19.6254 3.84257 21.972 3.79326C23.8173 3.75448 25.6781 4.43472 27.0753 5.85433C28.4814 7.28295 29.3333 9.37121 29.3333 12.0002C29.3333 16.7168 25.7768 19.8159 22.8322 22.1681C22.5077 22.4273 22.1904 22.6773 21.8819 22.9203L21.8818 22.9205L21.8817 22.9205C20.7066 23.8465 19.6592 24.6718 18.8276 25.5209C17.7812 26.5893 17.3333 27.4486 17.3333 28.2524H16Z" fill="currentColor"></path></g></symbol>
    <symbol viewBox="0 0 18 18" id="i-play"><path fill-rule="evenodd" clip-rule="evenodd" d="M6 3V9V14.75H7.5C7.5 14.75 11 11.5 15.5 9.75V9V8.25C11 6.5 7.5 3 7.5 3H6Z" fill="currentColor"></path></symbol>
    <symbol viewBox="0 0 20 20" id="i-pause"><g><path fill-rule="evenodd" clip-rule="evenodd" d="M9.16668 4.58325H5.83334V15.4166H9.16668V4.58325ZM14.1667 4.58333H10.8333V15.4167H14.1667V4.58333Z" fill="currentColor"></path></g></symbol>
    <symbol viewBox="0 0 24 24" id="i-next"><rect width="22" height="22" transform="translate(1 1)"></rect><path fill-rule="evenodd" clip-rule="evenodd" d="M3.75 2.83337H5.58333C11.0833 8.79171 17.5 11.0834 17.5 11.0834V12V12.9167C17.5 12.9167 11.0833 15.2084 5.58333 21.1667H3.75V12V2.83337ZM20.25 2.83337H17.5V21.1667H20.25V2.83337Z" fill="currentColor"></path></symbol>
    <symbol viewBox="0 0 20 20" id="i-lyrics"><path fill-rule="evenodd" clip-rule="evenodd" d="M6.42827 3.17505H7H7.75H8.32172L8.52247 3.71037L11.8975 12.7104L10.3525 13.2897L9.41921 10.8009C9.40514 10.7986 9.38673 10.7957 9.36421 10.7927C9.29183 10.7829 9.17775 10.7709 9.0296 10.766C8.7327 10.7563 8.30407 10.7755 7.80191 10.896C6.81456 11.133 5.49131 11.7725 4.30087 13.4732L2.85253 12.7104L6.22753 3.71037L6.42827 3.17505ZM8.78693 9.1148L7.375 5.34965L5.62935 10.0047C6.25312 9.64757 6.8618 9.42479 7.41684 9.29158C7.94003 9.16601 8.40796 9.12167 8.78693 9.1148ZM17.5 5.57505H11.5V3.92505H17.5V5.57505ZM13 9.32505H17.5V7.67505H13V9.32505ZM17.5 13.075H14.5V11.425H17.5V13.075ZM2.5 16.825H17.5V15.175H2.5V16.825Z" fill="currentColor"></path></symbol>
    <symbol viewBox="0 0 24 24" id="i-rewindBackward"><g fill="none" stroke="currentColor" stroke-linecap="round" stroke-linejoin="round" stroke-width="2"><path d="M7 9L4 6l3-3"/><path d="M15.997 17.918A6.002 6.002 0 0 0 15 6H4m2 8v6m3-4.5v3a1.5 1.5 0 0 0 3 0v-3a1.5 1.5 0 0 0-3 0"/></g></symbol>
    <symbol viewBox="0 0 24 24" id="i-rewindForward"><g fill="none" stroke="currentColor" stroke-linecap="round" stroke-linejoin="round" stroke-width="2"><path d="m17 9l3-3l-3-3"/><path d="M8 17.918A5.997 5.997 0 0 1 3 12a6 6 0 0 1 6-6h11m-8 8v6m3-4.5v3a1.5 1.5 0 0 0 3 0v-3a1.5 1.5 0 0 0-3 0"/></g></symbol>
    <symbol viewBox="0 0 24 24" id="i-spotify"><path fill="currentColor" d="M17.9 10.9C14.7 9 9.35 8.8 6.3 9.75c-.5.15-1-.15-1.15-.6c-.15-.5.15-1 .6-1.15c3.55-1.05 9.4-.85 13.1 1.35c.45.25.6.85.35 1.3c-.25.35-.85.5-1.3.25m-.1 2.8c-.25.35-.7.5-1.05.25c-2.7-1.65-6.8-2.15-9.95-1.15c-.4.1-.85-.1-.95-.5s.1-.85.5-.95c3.65-1.1 8.15-.55 11.25 1.35c.3.15.45.65.2 1m-1.2 2.75c-.2.3-.55.4-.85.2c-2.35-1.45-5.3-1.75-8.8-.95c-.35.1-.65-.15-.75-.45c-.1-.35.15-.65.45-.75c3.8-.85 7.1-.5 9.7 1.1c.35.15.4.55.25.85M12 2A10 10 0 0 0 2 12a10 10 0 0 0 10 10a10 10 0 0 0 10-10A10 10 0 0 0 12 2"></path></symbol>
    <symbol viewBox="0 0 24 24" id="i-youtube"><path fill="currentColor" d="M12 22q-2.075 0-3.9-.788q-1.825-.787-3.175-2.137q-1.35-1.35-2.137-3.175Q2 14.075 2 12t.788-3.9q.787-1.825 2.137-3.175q1.35-1.35 3.175-2.138Q9.925 2 12 2t3.9.787q1.825.788 3.175 2.138q1.35 1.35 2.137 3.175Q22 9.925 22 12t-.788 3.9q-.787 1.825-2.137 3.175q-1.35 1.35-3.175 2.137Q14.075 22 12 22Zm0-2.5q3.125 0 5.312-2.188Q19.5 15.125 19.5 12q0-3.125-2.188-5.312Q15.125 4.5 12 4.5q-3.125 0-5.312 2.188Q4.5 8.875 4.5 12q0 3.125 2.188 5.312Q8.875 19.5 12 19.5Zm0-1.5q-2.5 0-4.25-1.75T6 12q0-2.5 1.75-4.25T12 6q2.5 0 4.25 1.75T18 12q0 2.5-1.75 4.25T12 18Zm-2-2.5l5.5-3.5L10 8.5Z"></path></symbol>
    <symbol viewBox="0 0 32 32" id="i-apple"><path fill="currentColor" d="M31.995 8.167c0-.984-.083-1.964-.318-2.922c-.422-1.745-1.417-3.078-2.906-4.057c-.766-.5-1.609-.807-2.505-.969a13.353 13.353 0 0 0-2.083-.198c-.052-.005-.109-.016-.167-.021H7.985c-.203.016-.406.026-.609.036c-.995.057-1.984.161-2.922.536c-1.781.703-3.068 1.932-3.818 3.703c-.26.599-.391 1.234-.484 1.88c-.078.521-.12 1.047-.135 1.573c0 .042-.01.083-.01.125V24.15l.031.563c.068 1.089.208 2.167.667 3.167c.865 1.891 2.318 3.135 4.313 3.734c.557.172 1.141.25 1.724.302c.74.073 1.479.083 2.219.083h14.708c.698 0 1.396-.047 2.094-.135c1.099-.141 2.13-.464 3.063-1.078a6.74 6.74 0 0 0 2.505-2.943c.25-.563.391-1.161.495-1.766c.151-.901.182-1.813.182-2.724c-.005-5.063 0-10.125-.005-15.188zm-8.563 5.317v7.615c0 .557-.078 1.104-.328 1.609c-.385.786-1.01 1.281-1.849 1.521a6.038 6.038 0 0 1-1.427.229a2.48 2.48 0 0 1-2.589-2.047a2.502 2.502 0 0 1 1.385-2.698c.427-.208.891-.333 1.354-.427c.505-.109 1.01-.208 1.51-.323c.37-.083.609-.307.682-.688c.021-.083.026-.172.026-.255v-7.26a1 1 0 0 0-.036-.245c-.052-.203-.198-.323-.406-.313c-.214.01-.422.047-.63.089c-1.016.198-2.031.401-3.042.609l-4.932.995c-.021.005-.047.016-.068.016c-.37.104-.5.271-.516.656c-.005.057 0 .115 0 .172c-.005 3.469 0 6.938-.005 10.406c0 .563-.063 1.115-.286 1.635c-.37.854-1.026 1.391-1.911 1.646a5.825 5.825 0 0 1-1.438.229c-1.276.047-2.339-.802-2.557-2.057c-.188-1.083.307-2.25 1.536-2.771c.479-.198.974-.307 1.479-.411l1.146-.234c.51-.109.776-.432.802-.953V8.187c0-.167.021-.333.057-.495c.094-.38.365-.599.729-.688c.339-.089.688-.151 1.031-.224c.979-.198 1.953-.396 2.932-.589l3.026-.615c.896-.177 1.786-.359 2.682-.536c.292-.057.589-.12.885-.141c.411-.036.698.224.74.641c.01.099.016.198.016.297v7.641z"></path></symbol>
  </defs>
</svg>